<svg width="33" height="30" viewBox="0 0 33 30" fill="none" xmlns="http://www.w3.org/2000/svg">
<path d="M25.2043 29.9996C18.7486 29.9917 12.5596 27.5554 7.99476 23.2251C3.42987 18.8948 0.861639 13.0239 0.853271 6.89995C0.853271 5.06998 1.6196 3.31497 2.98368 2.02098C4.34776 0.727001 6.19785 4.93694e-05 8.12695 4.93694e-05C8.53545 -0.00290229 8.94326 0.0322664 9.3445 0.105048C9.73239 0.159498 10.1137 0.24993 10.483 0.375044C10.7427 0.461487 10.9741 0.61074 11.1544 0.808046C11.3347 1.00535 11.4575 1.24387 11.5108 1.50003L13.6771 10.4999C13.7355 10.7442 13.7284 10.9985 13.6566 11.2395C13.5848 11.4806 13.4505 11.7007 13.266 11.8799C13.0604 12.0899 13.0446 12.1049 11.0997 13.0649C12.6572 16.3061 15.3899 18.909 18.8003 20.3998C19.8281 18.5398 19.8439 18.5248 20.0653 18.3298C20.2541 18.1547 20.4862 18.0273 20.7403 17.9592C20.9944 17.8911 21.2625 17.8844 21.52 17.9398L31.0074 19.9948C31.2688 20.0523 31.5104 20.172 31.7096 20.3425C31.9088 20.5131 32.0589 20.7289 32.1459 20.9697C32.2794 21.3258 32.3799 21.6922 32.4463 22.0647C32.51 22.4417 32.5417 22.8229 32.5412 23.2047C32.512 25.0269 31.7242 26.7641 30.3496 28.0371C28.975 29.3102 27.1253 30.0157 25.2043 29.9996Z" fill="#24173D"/>
</svg>
